<?xml version="1.0" encoding="UTF-8"?>
<svg version="1.1" viewBox="0 0 1356 1440" width="1280" height="1280" xmlns="http://www.w3.org/2000/svg">
<path transform="translate(518,66)" d="m0 0h27l32 3 26 6 38 12 21 9 23 12 22 13 14 10 20 15 9 7 13 12 10 8 7 7 4 5h7l34-11 24-6 20-4 27-4 31-2h21l39 3 31 6 24 7 30 13 16 8 17 11 13 10 14 11 13 13 7 8 8 9 13 18 10 16 12 23 12 31 7 21 5 5 17 16 11 11 20 25 12 20 13 25 7 18 5 18 4 19 3 19 1 14v30l-2 21-4 24-5 21-9 27-16 35-9 17-11 17-10 15-11 15-10 11-10 13-5 6-8 7-8 10 1 6 11 36 7 28 4 26 2 14 1 13v58l-2 18-4 24-6 22-11 30-12 25-7 11-9 13-8 11-12 14-13 13-8 7-10 9-18 12-16 10-16 8-21 8-23 8-10 4-5 5-14 15-7 8-13 11-8 7-11 8-18 11-29 15-19 7-23 6-31 5-14 1h-31l-20-2-21-3-24-6-24-8-33-15-23-12-13-9-16-10-13-11-13-10-14-12-8-7-14-14-7 1-53 15-28 6-31 4-19 1h-30l-19-1-32-5-19-5-30-10-25-11-23-14-14-10-10-8-12-11-16-16-10-13-10-14-11-18-8-16-8-19-9-25-4-11-13-13-8-7-15-16-13-16-10-14-13-24-7-14-8-22-7-28-5-38v-27l3-26 3-19 7-28 10-29 16-33 11-19 17-25 11-15 14-17 7-8 15-16 5-6-1-8-14-47-5-23-5-35-2-19v-42l4-33 6-28 7-21 10-25 8-16 7-12 15-22 11-13 5-6 5-4 7-8 7-7 28-21 14-8 19-10 21-9 18-6 13-4 8-6 9-11 5-6h2v-2l11-9 10-9 13-10 17-11 16-9 15-7 35-12 21-5zm-47 465-14 3-14 6-11 7-7 6-9 11-7 10-6 12-4 14-1 12v219l2 16 6 16 9 14 8 10 8 7 18 11 13 5 10 2 47 1h146l209-1 14-3 10-4 17-10 12-11 10-14 7-14 4-16 1-23v-106l-1-109-4-16-8-16-11-13-7-8-11-7-15-7-10-3-7-1z" fill="#BC110A"/>
<path transform="translate(518,66)" d="m0 0h27l32 3 26 6 38 12 21 9 23 12 22 13 14 10 20 15 9 7 13 12 10 8 7 7 4 5h7l34-11 24-6 20-4 27-4 31-2h21l39 3 31 6 24 7 30 13 16 8 17 11 13 10 14 11 13 13 7 8 8 9 13 18 10 16 12 23 12 31 3 12h-2l-1-4-2 4-7-4-7-8-2-1v-2l-5-2-5-3-10-4-8-4-18-8-4-2-9-2-2-1v-2l-10-3-19-7-21-6-14-3-24-5-35-5-39-2h-19l-14 1h-18l-34 2h-13l-5-5-13-18-8-11-9-12-10-13-5-5-5-6v-2l-4-2-4-4v-2h-2l-4-5-2-1v-2l-4-1-1-4-3-1-1-3 1-1-5-1v2h-6v2h-13l-5 4-6 2-25 12-23 12-20 11-13 5-12-1-16-6-10-5-24-11-32-14-7-3-12-4-21-8-31-9-14-2-5-2-22-4-20-2h-21l-9 2-19 2h-9l-9 3-2 2-2 1h-7l-13 8-8 3-9 2-3 4h-3l-2-3-5 4h-2v2l-5 5-1 5-6 5-6 8-8 7-8 10-6 9-3 5-8 16-4 9-2 8-7 24-3 11-2 14-3 16-3 24-2 17-1 16v73l2 14v16l-5 5-8 7-10 7-8 6h-3l-1 3-4 1v2l-9 6-8 6-13 11h-2v2l-7 6h-2v2h-3l-2 4-5 5-6 5-3-1v-3h-4l-13-44-5-23-5-35-2-19v-42l4-33 6-28 7-21 10-25 8-16 7-12 15-22 11-13 5-6 5-4 7-8 7-7 28-21 14-8 19-10 21-9 18-6 13-4 8-6 9-11 5-6h2v-2l11-9 10-9 13-10 17-11 16-9 15-7 35-12 21-5z" fill="#DB110E"/>
<path transform="translate(138,615)" d="m0 0 4 2v5l3-1v2l4 1 7 7v3l4 2 4 4 1 6-1 6 4 5 5 5 2 10 7 8 4 9 2 4 2 1 1 9-1 5h2l2 3-1 10-8 18-7 12-3 3-2 8-4 6-4 9-5 10-3 10-5 13-2 2-4 10-3 10h-2v2h-2l-2 6-4 6v6l-4 9-3 5-2 3-3 16-3 7-4 10 5 4v2l-8 2 1 8h-3l-4-4v2h-2l-2 5-1 1v4l-2 2-6 1-2 7-1 5h3v8l1 3h2l1 9h-3v-2l-2 1 1 1v8l2 6v2l-3 1 2 5 4 1 1 6-4-1 4 4 1 7 8 9 3 6 6 7 6 10 5 8v2h2v3l3 1 4 4v2h2l3 7 5 5v2h2l4 4v2l6 2 9 4 2 1v2l4 1 4 2v2l20 10 14 6 13 4 11 5 20 6 32 6 12 2 26 2 11 1 49 1 13-1h9l5-1h8l18-2h6l4 2h14l7 1 7 7 2 1 4 7 20 30 10 13 3 4v2h2l4 6 8 9 4 6 8 7 4 4 2 1 1 6-2 1 2 2-53 15-28 6-31 4-19 1h-30l-19-1-32-5-19-5-30-10-25-11-23-14-14-10-10-8-12-11-16-16-10-13-10-14-11-18-8-16-8-19-9-25-4-11-13-13-8-7-15-16-13-16-10-14-13-24-7-14-8-22-7-28-5-38v-27l3-26 3-19 7-28 10-29 16-33 11-19 17-25 11-15 5-6 1 2 7-6 8-10 10-4z" fill="#DA110E"/>
<path transform="translate(1088,938)" d="m0 0 4 1 1 17v52l-2 40-3 30-6 31-6 24-11 32-7 16-8 16-9 17-10 16-6 8-7 8 1 5-8 4-11 13-3-1-1-4-6 2-13 2-17 5-15-5-21-3-14-1-6-1-11-1-10-2-34-6-12-3-33-11-7-3-15-6-15-7-15-8-11-7-7-6-1-6 1-3v-8l2-3 5-2 7-1h10l13-2 5-3 11-3 4-4h4v-2l3-3 2-5 5-3h2l2-5 5-2 6-5 1-6 6-4h2l2-6 4-6 12-8 2-7 5-2-1-4 2-4 5-3 5-5 5-2v-3l-5-1v-2l-2-1 3-2 4-1 1-5 4-9h-2v-2h-2v-2l3-3-2-5 2-7-3-1 2-4 3-1 1-6 6-4 2-6 24-10 10-4 19-7 16-6 15-5 12-5 10-4 12-5 17-6 24-10 14-6 16-7z" fill="#9A0D08"/>
<path transform="translate(1214,368)" d="m0 0 8 6 13 12 12 12 20 25 12 20 13 25 7 18 5 18 4 19 3 19 1 14v30l-2 21-4 24-5 21-9 27-16 35-9 17-11 17-10 15-11 15-10 11-8 11h-3l-9 7-3 4h-2l-2 4-4 1v-2h-3l-3-10-6-12-7-9-5-8-3-7-8-14-3-7-9-14-7-17-2-11 2-9 7-17 9-14 3-8 3-5 6-12 3-7 8-15 3-8 4-7 4-10 1-7 5-13 7-23 4-10 6-22 5-26 2-24v-15l1-33 2-10h2l-5-17-5-9-3-15z" fill="#DA110E"/>
<path transform="translate(1194,831)" d="m0 0 2 4 12 39 6 26 5 35 1 13v58l-2 18-4 24-6 22-11 30-12 25-7 11-9 13-8 11-12 14-13 13-8 7-10 9-18 12-16 10-16 8-21 8-23 8-5 1-2-4 7-8 6-8 12-20 10-19 9-19 9-24 6-19 5-20h2l2-12 4-23 3-30 1-16v-88l-1-21 2-11 9-12 6-5 6-4 14-9 5-1v-2l6-4 20-14 9-7 7-6h2v-2l6-2 1-2 5-2z" fill="#DB110E"/>
<path transform="translate(624,581)" d="m0 0 4 1 11 8 17 12 16 12 14 10 10 7 14 11 15 10 13 10 18 13 14 10 13 10 19 13 13 11v4l-14 11-12 9-19 14-14 10-17 13-17 12-10 8-19 13-16 12-15 11-14 10-13 10-8 5-3-1-1-46v-98z" fill="#DB1411"/>
<path transform="translate(820,234)" d="m0 0h6l3 4v2h2l4 6v2l3 1 4 6 7 10 6 8v3h2l6 8 1 3 5 2h16l14-2 14-1h76l44 4 40 8 24 6 23 8 26 11 23 11 5 4-1 5-13 2-38 2-43 1-31 2-20 1-38 3-22 2-26 2-20 1-12 1-33 2h-24l-9-1-9 1-10-4-4-4v-2h2l2-5 1-3 6-3h2v-9l6-4v-4l-4-1 1-7h-2v-3h-2v-2l-2-1 2-2-1-13-4-5v-5l2-3 3-1 1-7 2-3-3-11-8-16-5-5z" fill="#9A0D08"/>
<path transform="translate(284,488)" d="m0 0 6 1 6 2 1 4 4 2-3 9h2v3h-2l-1 6-3 5-3 4-4 2-10 7-6 2v2l-11 6-18 11-13 7-28 20-14 9-7 4-16 5-12-4 1-6 9-7 3-5h2l1-3 7-6h2v-2l11-9 6-4 16-12 7-5 5-3 6-4 3-1v-2l7-5 7-4 5-6 3-11h10l7-2 7-6 5-2z" fill="#9A0D08"/>
<path transform="translate(562,1235)" d="m0 0 5 2 10 5v2l4 2 10 10 3 1 3 5 4 4v2l9 3 2 6 3 1 5 6 7 1 1 5 3-1 10 5 2 2 14 6 5 5 7 3h4v2l5 2 5 3 6 1v2l8 2 8 4 2 2 5 2 1 2-9 2-35-16-23-12-13-9-16-10-13-11-13-10-14-12-8-7-7-7z" fill="#DB1E1B"/>
<path transform="translate(562,1235)" d="m0 0 5 2 10 5v2l4 2 10 10 3 1 3 5 4 4v2l9 3 2 6 3 1 2 3v3l-5-1-12-10-10-8-13-11-8-7-7-7z" fill="#DA1C19"/>
<path transform="translate(1081,1109)" d="m0 0h1v7l-7 25-7 20-9 21-10 21-9 16-9 15-4 5-5 5h-2v2l4 1v2l-5 1-2-4 7-8 6-8 12-20 10-19 9-19 9-24 6-19z" fill="#BC110A"/>
<path transform="translate(395,799)" d="m0 0h1l1 5 1 28 1 9-3-1-2-4v-13z" fill="#A60D08"/>
<path transform="translate(904,537)" d="m0 0 8 2v2l5 1 3 4-1 2-3 1-9-6-6-3 3-1z" fill="#DC2825"/>
<path transform="translate(28,834)" d="m0 0h1l1 16 1 2 1 17-1 9h-1l-2-17z" fill="#E1817E"/>
<path transform="translate(1034,1225)" d="m0 0 1 3-4 6-4 5-5 5h-2v2l4 1v2l-5 1-2-4 7-8 6-8z" fill="#BF1A14"/>
<path transform="translate(31,877)" d="m0 0h3l2 21-1 5-2-4-2-13z" fill="#D03F3A"/>
<path transform="translate(930,890)" d="m0 0h2l-1 5-4 2-4 6-8 6h-3v-2l5-3 4-5 8-8z" fill="#DA100C"/>
<path transform="translate(617,1282)" d="m0 0 7 3h3l2 6-1 2-5-2-8-6 2-1z" fill="#DE322F"/>
<path transform="translate(61,711)" d="m0 0h1v8l-7 13-4 2 2-6z" fill="#D54843"/>
<path transform="translate(43,933)" d="m0 0 3 1 6 16-1 3-3-4-5-13z" fill="#CC3C37"/>
<path transform="translate(92,1017)" d="m0 0 4 1 3 3v2h2l6 7v2h2v2h2l-1 3-9-9-7-8z" fill="#CE4D48"/>
<path transform="translate(34,789)" d="m0 0h1l1 9-2 10-1 1-1 7h-1l1-17z" fill="#D7534F"/>
<path transform="translate(1287,683)" d="m0 0h2l-1 5-8 17h-2l1-5 2-4h2v-5z" fill="#D44C47"/>
<path transform="translate(43,760)" d="m0 0 1 3-4 13-3 4 1-8 3-11z" fill="#D14540"/>
<path transform="translate(128,1052)" d="m0 0h2l4 9 1 6-2 3-5-15z" fill="#CF3C37"/>
<path transform="translate(162,1130)" d="m0 0 4 5 7 10-1 4-10-15z" fill="#D34641"/>
<path transform="translate(51,954)" d="m0 0 4 2 5 10-1 3-3-4-5-9z" fill="#D24E49"/>
<path transform="translate(991,1274)" d="m0 0 1 3-7 7-4 2v-3l8-7z" fill="#B63A36"/>
<path transform="translate(1308,599)" d="m0 0h1v10l-3 3-1-9z" fill="#BE100A"/>
<path transform="translate(146,595)" d="m0 0 3 1-12 11-4 3 2-4z" fill="#C2605D"/>
<path transform="translate(83,1006)" d="m0 0 4 1 2 4h2v3h2l-1 3-5-5z" fill="#C83731"/>
<path transform="translate(397,841)" d="m0 0h3l2 12-3-1-2-9z" fill="#B74541"/>
<path transform="translate(703,121)" d="m0 0 5 1 9 6-2 2-12-8z" fill="#D2524D"/>
<path transform="translate(670,613)" d="m0 0 9 6 3 3-2 1-10-7z" fill="#D45752"/>
</svg>
