<?xml version="1.0" encoding="UTF-8"?>
<svg version="1.1" viewBox="0 0 1260 916" width="1280" height="1280" xmlns="http://www.w3.org/2000/svg">
<path transform="translate(561,49)" d="m0 0h148l145 4 88 4 46 4 52 6 37 6 26 6 15 5 16 7 10 6 12 9 8 7 9 11 8 11 9 16 6 15 6 19 8 40 8 60 4 65 3 67v108l-3 64-4 56-8 59-8 39-6 20-6 15-8 15-10 14-12 13-17 13-16 8-16 6-23 6-32 6-32 4-66 6-58 3-95 4-69 2h-220l-87-3-106-5-52-4-51-5-37-6-23-6-20-7-18-10-12-9-12-11-8-9-10-15-9-17-10-30-8-35-7-48-5-54-4-58-1-58v-54l1-47 3-51 5-62 5-38 5-28 6-27 8-23 11-21 10-14 3-4h2l2-4 8-8 16-12 15-9 15-6 23-6 49-7 39-4 66-5 100-5 87-3zm-48 238-1 3-1 13-1 43-1 100-1 67v74l1 37 1 15 1 5 9-2 25-13 24-14 19-11 27-16 18-10 20-12 63-36 24-14 42-24 20-11 12-8 6-5 1-8-5-4-30-18-16-9-27-15-25-14-24-14-27-15-24-14-25-14-23-13-24-14-28-16-26-13z" fill="#F71E19"/>
<path transform="translate(561,49)" d="m0 0h148l145 4 88 4 46 4 52 6 37 6 26 6 15 5 16 7 10 6 12 9 8 7 9 11 8 11 9 16 6 15 6 19 8 40 8 60 4 65 1 21v16l-1 7h-1l-1-5-2-2-1-7-3-4h3l1-7v-6l-2 5-5 3-1 2 3-1-1 3h-2v2l-4 1-9-3-1-2-6-1-4-5v-3h-2v-2l-2-1-5-5-3-5-5-11-1-4-2-1-2-9h-2l-3-5v-3l-2-1v-3l-3-4-2-9 1-5-2-1 1-2h-3v-2h-2v-4h-2l-1-4-2-4-2-5-3-8-2-7-3-1v-2l2-1-4-9-2-6-1-7-2-4h-2l1 6 3 14-2 1-3-3-2-3-1-8-4-1v-4h2l-3-7h-3l-1-3-3-2-1-5-11-5-1-6-7-2-5-1-1-2-7-1-10-7-2-2-12-3-6-2-1-2-8-1-6-2-5-1-7-2-13-6 1-3 4-1 1 1h8l4 4 7 1 10 2 2-2-13-3h-3l-2-2-5-1-1-4-7 1-10-2-6-3-14-1-4-1-2 1-23-5-15-3-12-2-11-1v-1l-16-2-6-2-14-3-1 2-3-2-16-2-7-2-15-3-13-2-7-1h-6l-5-1-3-1-10-1h-3l-7-2-5 1-6-2-14-2h-6l-2-2-12-2-6-3h-2l-1 2-8-2-10-1-8-2-4-2-3 1-9-3-14-1-14-2-2-2-4-2v2l-3 1-2-4-8 1-1-2-4-1-4 1-4-3-9-1h-5l-4-3-4-1v-2l-9 2-4-1v-2l-7 2-9-3-2 1-1-1-6-1-3-1v2l-5-1-1-2-2 2-4-1v-2h-4l-9-3h-3l-1-2-4 1-6-1h-3l-4-3h-5l-2-4h-2l-1 2-3-1v-2l-4 1h-4l1-3-5-1v-3h-6l-1-2 3-1-4-1h-2v-2l-6 1-2-1h-7l-1-1-10-1v-1l60-2z" fill="#F95452"/>
<path transform="translate(74,766)" d="m0 0 7 2 3 2v2h3l6 10 11 9 2 1v2l4 2 5 4 6 2h9l6 4 3 3 1 2 4 1 1 3 5 1 7 3 1 2 7-1 4 1 5 2 1 1v7h2v2l5 1 1 4h5l1 1 5-1 3-5 5-1h3 7l2 2 17 1 10 1 4 4 1 2 7-2 13-1 1 7h7l4-2 6 3 11 2 3 3 17 1 6 1 3 3h-2l-1 2h6l-1-3 4-1v4l10 2-1 2-5 1 1 4 6 1v1h-18l-52-4-51-5-37-6-23-6-20-7-18-10-12-9-12-11-8-9-10-15-9-17 1-4 2 1z" fill="#E21916"/>
<path transform="translate(41,332)" d="m0 0h1v27l-2 23v146l2 41 3 40 1 9v17l-2 4-6-75-1-18-1-58v-54l1-47 3-51z" fill="#E62320"/>
<path transform="translate(41,332)" d="m0 0h1v27l-2 23-1 23-2 1v-19l3-51z" fill="#EA2B29"/>
<path transform="translate(41,598)" d="m0 0 3 1 2 19v17l-2 4-3-35z" fill="#E72623"/>
<path transform="translate(45,645)" d="m0 0 1 2h2l3 31-2 2-4-30z" fill="#E82623"/>
<path transform="translate(501,874)" d="m0 0 9 1 28 1v1h-40l-3-2z" fill="#E21815"/>
<path transform="translate(204,836)" d="m0 0h2l1 3-6 3-1 2-3-3z" fill="#F81E19"/>
<path transform="translate(45,645)" d="m0 0 1 2h2v10l-2 1z" fill="#EA2D2A"/>
</svg>
